<?xml version="1.0" encoding="UTF-8" standalone="no"?>
<svg
   height="24px"
   viewBox="0 -960 960 960"
   width="24px"
   fill="#e3e3e3"
   version="1.1"
   id="svg1"
   sodipodi:docname="home_health_24dp_E3E3E3_FILL0_wght400_GRAD0_opsz24.svg"
   inkscape:version="1.4.3 (0d15f75042, 2025-12-25)"
   xmlns:inkscape="http://www.inkscape.org/namespaces/inkscape"
   xmlns:sodipodi="http://sodipodi.sourceforge.net/DTD/sodipodi-0.dtd"
   xmlns="http://www.w3.org/2000/svg"
   xmlns:svg="http://www.w3.org/2000/svg">
  <defs
     id="defs1" />
  <sodipodi:namedview
     id="namedview1"
     pagecolor="#ffffff"
     bordercolor="#000000"
     borderopacity="0.25"
     inkscape:showpageshadow="2"
     inkscape:pageopacity="0.0"
     inkscape:pagecheckerboard="0"
     inkscape:deskcolor="#d1d1d1"
     inkscape:zoom="11.313709"
     inkscape:cx="-12.904699"
     inkscape:cy="11.578874"
     inkscape:window-width="1908"
     inkscape:window-height="1028"
     inkscape:window-x="0"
     inkscape:window-y="0"
     inkscape:window-maximized="1"
     inkscape:current-layer="svg1" />
  <path
     id="path1"
     style="fill:#1a1a1a"
     d="m 480,-820 c -18,0 -33.96875,5.34897 -47.96875,16.01562 l -240,180 c -10,7.33335 -17.84896,16.63541 -23.51563,27.96876 C 162.84896,-584.68231 160,-572.66667 160,-560 v 360 c 0,22 7.84896,40.8177 23.51562,56.48438 C 199.18229,-127.84897 218,-120 240,-120 h 239.6875 c 20.11575,-0.41706 27.61435,-15.36532 27.57815,-17.1875 0.0464,-16.33747 -0.42324,3.29227 0.3125,-40.07812 -0.0163,-7.58064 2.4321,-22.81432 -27.42185,-22.73438 H 240 v -360 l 240,-180 240,180 c 0,0 0.0207,51.21247 0,76.40625 -0.009,10.81412 15,15 15,15 l 54.4026,-0.3125 c 0,0 10.49129,1.61053 10.49746,-12.67195 C 799.91331,-512.24852 800,-560 800,-560 c 0,-12.66667 -2.84897,-24.68231 -8.51562,-36.01562 -5.66667,-11.33334 -13.51563,-20.63541 -23.51563,-27.96876 l -240,-180 C 513.96875,-814.65103 498,-820 480,-820 Z"
     sodipodi:nodetypes="sccsssssccccccccsccsssccs" />
  <path
     d="m 619.45127,-82.593053 c -7.58382,-7.583813 -11.37573,-16.70052 -11.37573,-27.350117 h 77.45162 c 0,10.649597 -3.79187,19.766304 -11.37562,27.350117 -7.58382,7.583793 -16.70055,11.375689 -27.35019,11.375689 -10.64956,0 -19.76625,-3.791896 -27.35008,-11.375689 z m -30.73863,-46.713027 c -5.48614,0 -10.08482,-1.85561 -13.79606,-5.56682 -3.71123,-3.71123 -5.56685,-8.30992 -5.56685,-13.79607 0,-5.48616 1.85562,-10.08485 5.56685,-13.79607 3.71124,-3.71123 8.30992,-5.56684 13.79606,-5.56684 h 116.17743 c 5.48621,0 10.08493,1.85561 13.79616,5.56684 3.71117,3.71122 5.56675,8.30991 5.56675,13.79607 0,5.48615 -1.85558,10.08484 -5.56675,13.79607 -3.71123,3.71121 -8.30995,5.56682 -13.79616,5.56682 z m -14.52216,-58.0887 c -22.26733,-13.23133 -39.93598,-30.98066 -53.00594,-53.248 -13.06995,-22.26734 -19.60493,-46.47097 -19.60493,-72.61089 0,-40.33938 14.11881,-74.62784 42.35641,-102.86538 28.23753,-28.23761 62.52597,-42.35641 102.86533,-42.35641 40.33944,0 74.62792,14.1188 102.86544,42.35641 28.23761,28.23754 42.35641,62.526 42.35641,102.86538 0,26.13992 -6.53497,50.34355 -19.60493,72.61089 -13.06996,22.26734 -30.7386,40.01667 -53.00594,53.248 z m 11.61777,-38.72582 h 121.98631 c 14.52216,-10.32688 25.73651,-23.07413 33.64303,-38.24173 7.90653,-15.16762 11.85979,-31.46473 11.85979,-48.89134 0,-29.68979 -10.32688,-54.86157 -30.98066,-75.51533 -20.65378,-20.65376 -45.82557,-30.98064 -75.51537,-30.98064 -29.68971,0 -54.86146,10.32688 -75.51525,30.98064 -20.65378,20.65376 -30.98067,45.82554 -30.98067,75.51533 0,17.42661 3.95327,33.72372 11.85979,48.89134 7.90653,15.1676 19.12087,27.91485 33.64303,38.24173 z"
     id="path1-5"
     style="fill:#1a1a1a;stroke:#1a1a1a;stroke-width:16;stroke-dasharray:none;stroke-opacity:1"
     sodipodi:nodetypes="sccsssssssssssssscsssssssccccsssssssc" />
</svg>
